<?xml version="1.0" standalone="no"?>
<!DOCTYPE svg PUBLIC "-//W3C//DTD SVG 20010904//EN"
 "http://www.w3.org/TR/2001/REC-SVG-20010904/DTD/svg10.dtd">
<svg version="1.0" xmlns="http://www.w3.org/2000/svg"
 width="260.000000pt" height="260.000000pt" viewBox="0 0 260.000000 260.000000"
 preserveAspectRatio="xMidYMid meet">
<metadata>
Created by potrace 1.11, written by Peter Selinger 2001-2013
</metadata>
<g transform="translate(0.000000,260.000000) scale(0.100000,-0.100000)"
fill="#000000" stroke="none">
<path d="M161 2131 c-24 -24 -36 -65 -55 -201 -22 -154 -34 -277 -51 -500 -3
-41 -7 -104 -10 -140 -6 -84 -12 -178 -20 -320 -4 -63 -8 -135 -10 -160 -12
-155 -15 -338 -7 -361 13 -32 46 -43 65 -20 23 25 29 74 43 321 3 58 7 130 9
160 2 30 6 100 10 155 4 55 8 120 10 145 2 25 7 89 10 143 4 54 8 106 10 115
2 9 4 39 4 66 1 76 9 51 15 -49 7 -112 15 -209 21 -255 3 -19 7 -62 10 -95 26
-282 95 -493 168 -513 38 -11 90 7 120 41 34 38 84 158 110 262 32 126 60 300
72 445 12 139 20 91 23 -143 7 -532 23 -749 59 -789 25 -28 68 -23 93 11 28
40 63 119 100 222 16 46 29 82 30 79 0 -3 2 -36 4 -75 3 -82 27 -159 60 -197
80 -94 217 -54 319 91 9 14 19 23 21 20 3 -3 18 -34 33 -69 39 -89 46 -100 71
-105 26 -5 52 28 52 65 0 14 -20 71 -44 128 l-44 103 24 54 c14 29 42 100 64
157 l40 103 -5 -65 c-22 -291 -28 -481 -16 -511 12 -32 45 -43 64 -20 23 25
25 38 42 321 12 199 25 391 30 455 2 28 7 93 10 145 3 52 8 104 10 115 2 11 4
40 4 64 1 70 10 43 16 -50 3 -46 7 -109 10 -139 3 -30 8 -80 11 -110 11 -124
15 -156 19 -180 3 -14 7 -41 9 -60 16 -119 48 -237 83 -301 23 -43 43 -60 83
-72 22 -6 79 19 102 46 58 66 118 240 148 433 6 38 13 80 15 94 5 31 14 109
21 175 6 59 12 96 16 101 2 1 5 -102 6 -229 6 -523 24 -767 59 -802 25 -26 69
-19 93 15 34 48 74 144 129 310 l51 155 0 158 c0 99 -4 156 -10 152 -5 -3 -32
-79 -60 -168 -70 -222 -91 -286 -105 -327 -11 -29 -13 26 -14 345 -3 768 -29
1028 -106 1063 -28 13 -49 -2 -67 -47 -10 -27 -35 -150 -43 -211 -3 -19 -7
-46 -9 -60 -3 -14 -8 -50 -11 -80 -3 -30 -8 -66 -10 -80 -3 -14 -7 -47 -10
-75 -3 -27 -10 -86 -15 -130 -6 -44 -13 -96 -15 -115 -9 -75 -17 -129 -32
-220 -8 -52 -17 -108 -20 -125 -14 -92 -58 -225 -74 -225 -5 0 -9 2 -9 4 0 2
-7 31 -15 63 -8 32 -17 73 -20 91 -3 17 -7 44 -9 60 -3 15 -8 56 -11 92 -3 36
-8 76 -10 90 -8 53 -15 122 -30 313 -3 34 -7 82 -10 107 -2 25 -7 70 -10 100
-12 124 -15 148 -24 215 -21 142 -39 194 -78 225 -53 42 -78 -3 -107 -195 -8
-54 -17 -131 -21 -171 -1 -21 -5 -61 -9 -89 -3 -27 -8 -84 -11 -125 -12 -168
-16 -193 -40 -212 -16 -13 -32 -50 -55 -133 -48 -176 -114 -350 -129 -341 -5
3 -14 27 -21 53 -7 27 -16 53 -20 58 -9 13 -90 253 -90 267 0 6 25 88 55 182
73 223 96 318 99 391 7 178 -90 317 -196 280 -42 -14 -70 -39 -92 -82 -42 -83
-63 -186 -60 -298 2 -74 12 -178 20 -207 3 -10 7 -30 10 -45 2 -16 9 -51 15
-79 9 -41 8 -61 -5 -106 -16 -55 -16 -55 -53 -54 l-38 1 -32 -95 c-17 -52 -50
-156 -73 -230 -73 -238 -68 -252 -70 185 -2 663 -21 921 -75 1025 -23 44 -67
42 -88 -3 -17 -34 -31 -93 -41 -162 -4 -23 -8 -50 -10 -60 -2 -11 -7 -42 -10
-70 -4 -27 -9 -61 -11 -75 -4 -31 -13 -101 -20 -160 -3 -25 -7 -61 -10 -80 -2
-19 -7 -55 -10 -80 -3 -25 -7 -61 -10 -80 -3 -19 -7 -55 -10 -80 -7 -48 -8
-55 -25 -165 -7 -38 -14 -83 -17 -100 -14 -88 -58 -225 -73 -225 -12 0 -41
120 -55 230 -3 25 -8 56 -10 70 -2 14 -7 54 -10 90 -3 36 -8 81 -10 100 -2 19
-7 67 -10 105 -7 84 -14 164 -20 225 -5 56 -15 154 -19 200 -22 215 -54 322
-106 350 -15 8 -24 6 -39 -9z m1116 -244 c6 -55 -15 -153 -59 -287 l-22 -65
-8 50 c-26 168 -3 344 49 373 24 14 33 -3 40 -71z m-54 -839 c5 -24 60 -176
95 -264 l21 -51 -34 -49 c-53 -78 -80 -98 -127 -95 -34 2 -48 120 -28 232 5
30 11 63 13 74 9 56 42 175 48 175 4 0 9 -10 12 -22z"/>
</g>
</svg>
